<?xml version="1.0" encoding="UTF-8" standalone="no"?>
<svg
   xmlns:dc="http://purl.org/dc/elements/1.1/"
   xmlns:cc="http://creativecommons.org/ns#"
   xmlns:rdf="http://www.w3.org/1999/02/22-rdf-syntax-ns#"
   xmlns:svg="http://www.w3.org/2000/svg"
   xmlns="http://www.w3.org/2000/svg"
   xmlns:xlink="http://www.w3.org/1999/xlink"
   xmlns:sodipodi="http://sodipodi.sourceforge.net/DTD/sodipodi-0.dtd"
   xmlns:inkscape="http://www.inkscape.org/namespaces/inkscape"
   height="305.02097"
   width="306.4751"
   version="1.1"
   id="svg4552"
   sodipodi:docname="Applications-multimedia.svg"
   inkscape:version="0.92.1 r15371">
  <metadata
     id="metadata4556">
    <rdf:RDF>
      <cc:Work
         rdf:about="">
        <dc:format>image/svg+xml</dc:format>
        <dc:type
           rdf:resource="http://purl.org/dc/dcmitype/StillImage" />
        <dc:title></dc:title>
      </cc:Work>
    </rdf:RDF>
  </metadata>
  <sodipodi:namedview
     pagecolor="#ffffff"
     bordercolor="#666666"
     borderopacity="1"
     objecttolerance="10"
     gridtolerance="10"
     guidetolerance="10"
     inkscape:pageopacity="0"
     inkscape:pageshadow="2"
     inkscape:window-width="1366"
     inkscape:window-height="706"
     id="namedview4554"
     showgrid="false"
     fit-margin-top="0"
     fit-margin-left="0"
     fit-margin-right="0"
     fit-margin-bottom="0"
     inkscape:zoom="0.7625"
     inkscape:cx="21.453992"
     inkscape:cy="281.03777"
     inkscape:window-x="-8"
     inkscape:window-y="-8"
     inkscape:window-maximized="1"
     inkscape:current-layer="svg4552" />
  <defs
     id="defs4512">
    <linearGradient
       id="a">
      <stop
         stop-color="#fdfdfd"
         offset="0"
         id="stop4485" />
      <stop
         stop-color="#d4d4d4"
         offset="1"
         id="stop4487" />
    </linearGradient>
    <radialGradient
       id="c"
       cx="27.216"
       gradientUnits="userSpaceOnUse"
       cy="35.673"
       r="19.570999"
       gradientTransform="matrix(2.8831,0,0,2.136,-64.968,-52.486)">
      <stop
         stop-color="#5d5d5d"
         offset="0"
         id="stop4490" />
      <stop
         stop-color="#444"
         offset="1"
         id="stop4492" />
    </radialGradient>
    <linearGradient
       id="d"
       y2="49.143002"
       gradientUnits="userSpaceOnUse"
       y1="13.143"
       x2="21.535999"
       x1="5.4629998">
      <stop
         stop-color="#fff"
         offset="0"
         id="stop4495" />
      <stop
         stop-color="#fff"
         stop-opacity="0"
         offset="1"
         id="stop4497" />
    </linearGradient>
    <radialGradient
       id="b"
       cx="24.643"
       gradientUnits="userSpaceOnUse"
       cy="44.285999"
       r="22.070999"
       gradientTransform="matrix(1,0,0,0.20712,0,35.113)">
      <stop
         offset="0"
         id="stop4500" />
      <stop
         stop-opacity="0"
         offset="1"
         id="stop4502" />
    </radialGradient>
    <linearGradient
       id="g"
       y2="11.107"
       gradientUnits="userSpaceOnUse"
       y1="15.929"
       x2="7.9289999"
       x1="10.679">
      <stop
         stop-color="#939393"
         offset="0"
         id="stop4505" />
      <stop
         stop-color="#d9d9d9"
         offset="1"
         id="stop4507" />
    </linearGradient>
    <linearGradient
       id="e"
       y2="18.693001"
       xlink:href="#a"
       gradientUnits="userSpaceOnUse"
       y1="6.1100001"
       x2="18.773001"
       x1="2.7609999" />
    <linearGradient
       id="f"
       y2="18.693001"
       xlink:href="#a"
       gradientUnits="userSpaceOnUse"
       y1="6.1100001"
       gradientTransform="translate(-0.6,-0.578)"
       x2="18.773001"
       x1="2.7609999" />
  </defs>
  <g
     id="g4577"
     transform="matrix(6.9407415,0,0,6.3552904,-17.754691,-0.03363093)">
    <path
       id="path4514"
       transform="translate(0,-0.857)"
       display="block"
       d="m 46.714,44.286 a 22.0715,4.5711036 0 1 1 -44.143,0 22.0715,4.5711036 0 1 1 44.143,0 z"
       style="color:#000000;display:block;opacity:0.744;fill:url(#b)"
       inkscape:connector-curvature="0" />
    <rect
       id="rect4516"
       display="block"
       x="5.4289999"
       y="16.570999"
       width="38.143002"
       ry="1.143"
       rx="1.143"
       height="28"
       style="color:#000000;display:block;fill:url(#c);stroke:#1b1b1b" />
    <rect
       id="rect4518"
       display="block"
       x="6.3920002"
       y="17.489"
       width="36.073002"
       ry="0.27399999"
       rx="0.27399999"
       height="26.059999"
       style="color:#000000;display:block;opacity:0.31199999;fill:none;stroke:url(#d)" />
    <g
       id="g4528"
       transform="matrix(-0.97271112,0.23201954,0.23201954,0.97271112,45.786005,5.1105872)">
      <rect
         id="rect4520"
         display="block"
         x="1.705"
         y="10.353"
         height="6.5089998"
         width="39.806"
         ry="1.143"
         rx="1.143"
         transform="rotate(-12.991)"
         style="color:#000000;display:block;fill:url(#e);stroke:#2b2b2b" />
      <path
         id="path4522"
         d="m 9.19,8.97 -2.43,6.57 4.714,-1.286 2.429,-6.286 -4.714,1 z m 9.142,-2.072 -2.285,6.5 4.714,-1.143 2.286,-6.357 z m 9.572,-2.214 -2.286,6.428 4.714,-1.143 2.286,-6.285 z"
         inkscape:connector-curvature="0"
         style="fill-rule:evenodd" />
      <path
         id="path4524"
         display="block"
         d="m 39.413,2.018 c 0.229,0.156 0.401,0.364 0.469,0.657 l 0.732,3.075 -0.723,2 -4.688,1.085 2.281,-6.357 z"
         inkscape:connector-curvature="0"
         style="color:#000000;display:block" />
      <rect
         id="rect4526"
         display="block"
         x="2.6719999"
         y="11.327"
         height="4.6069999"
         width="37.842999"
         transform="rotate(-12.991)"
         rx="0.26499999"
         ry="0.26499999"
         style="color:#000000;display:block;fill:none;stroke:#ffffff;stroke-opacity:0.575" />
    </g>
    <rect
       id="rect4530"
       display="block"
       x="0.67000002"
       y="9.6850004"
       height="6.9419999"
       width="40.077"
       ry="1.143"
       rx="1.143"
       transform="rotate(-12.991)"
       style="color:#000000;display:block;fill:url(#f);stroke:#2e2e2e" />
    <path
       id="path4532"
       d="m 10.143,8.143 -2.429,6.571 4.715,-1.285 2.428,-6.286 z m 9.286,-2.357 -2.643,7 4.714,-1.143 2.643,-6.857 z m 9.642,-2.143 -2.571,7.143 4.714,-1.143 2.572,-7 z"
       inkscape:connector-curvature="0"
       style="fill-rule:evenodd" />
    <path
       id="path4534"
       display="block"
       d="m 41.295,0.978 c 0.229,0.156 0.401,0.363 0.468,0.656 l 0.661,2.647 -1.08,2.786 -5.116,1.228 2.352,-6.715 z"
       inkscape:connector-curvature="0"
       style="color:#000000;display:block" />
    <rect
       id="rect4536"
       display="block"
       x="1.637"
       y="10.659"
       height="4.915"
       width="38.199001"
       transform="rotate(-12.991)"
       rx="0.26499999"
       ry="0.26499999"
       style="color:#000000;display:block;fill:none;stroke:#ffffff;stroke-opacity:0.575" />
    <path
       id="path4538"
       d="m 6.536,10.893 v 7.786 a 0.96,0.96 0 0 0 0.857,0.928 h 7.893 c 0.863,0 1.274,-1.262 0.607,-1.928 L 9.679,10.393 C 8.714,9 6.536,9.679 6.536,10.893 Z"
       style="fill:url(#g);fill-rule:evenodd;stroke:#1b1b1b"
       inkscape:connector-curvature="0" />
    <path
       id="path4540"
       display="block"
       d="m 8.964,12.232 a 0.482,0.482 0 1 1 -0.964,0 0.482,0.482 0 1 1 0.964,0 z m 0,5.285 a 0.482,0.482 0 1 1 -0.964,0 0.482,0.482 0 1 1 0.964,0 z m 5.036,0 a 0.482,0.482 0 1 1 -0.964,0 0.482,0.482 0 1 1 0.964,0 z"
       inkscape:connector-curvature="0"
       style="color:#000000;display:block;fill:#ffffff" />
    <path
       id="path4542"
       d="M 10,32.429 H 38 M 10,36.571 H 38 M 32.5,32 V 28 M 10,36.571 H 38 M 22.5,32 V 28 M 9.743,40.571 h 13.3"
       inkscape:connector-curvature="0"
       style="opacity:0.26100003;fill:none;stroke:#ffffff" />
    <path
       id="path4544"
       d="m 21.489,33.888 c 0.078,0.664 0.168,1.326 0.272,1.987 l -1.45,0.767 C 20.219,35.993 20.142,35.34 20,34.699 Z m 2.648,0.574 c -0.017,1.43 0.466,0.82 -1.315,1.781 0.561,-0.896 1.508,-1.801 2.442,-0.994 1.782,0.29 -0.987,1.708 0.244,0.217 1.789,-1.562 1.529,-0.687 3.03,-0.598 1.225,0.296 1.236,0.038 -0.392,0.975 l 0.066,-0.058 1.54,-0.652 a 5.273,5.273 0 0 0 -0.052,0.08 c -1.935,1.155 -1.148,0.815 -2.51,0.637 -1.284,-0.225 -1.978,-0.38 -0.151,-1.02 -0.785,0.89 -2.052,2.27 -3.178,1.295 -1.093,-0.806 1.467,-1.661 0.526,-0.503 -1.846,1.017 -1.652,1.067 -1.762,-0.39 z m 7.919,-1.68 c 0.1,1.037 0.156,2.077 0.279,3.112 0.98,1.274 -1.257,3.189 -0.927,1.245 0.235,-2.232 0.447,-2.645 2.428,-3.358 0.377,0.677 0.583,1.471 1.173,1.877 -3.33,1.756 1.165,-1.019 1.665,-1.284 0.32,-0.075 0.646,-0.114 0.972,-0.16 l -1.322,0.99 c -0.32,0.047 -0.643,0.081 -0.953,0.18 2.064,-1.316 -0.39,0.58 -1.724,1.25 -0.636,-0.498 -0.787,-1.303 -1.227,-1.982 2.165,-1.526 0.436,-0.097 0.44,1.773 -0.196,1.617 -2.285,2.443 -1.938,0.212 -0.119,-1.02 -0.172,-2.053 -0.364,-3.06 z"
       inkscape:connector-curvature="0"
       style="fill:#ffffff" />
    <g
       id="g4550"
       style="fill:#ffffff">
      <path
         id="path4546"
         d="m 13.353,28.156 c 1.847,-1.351 1.143,-0.285 1.145,1.163 -0.015,1.304 0.178,2.593 0.468,3.86 l -1.28,0.692 c -0.291,-1.277 -0.486,-2.576 -0.482,-3.89 -0.02,-1.575 -0.293,-1.98 1.366,-2.709 z m 4.355,0.04 c -0.024,0.8 -0.024,1.603 -0.027,2.405 l -0.001,1.01 -1.283,0.653 -10e-4,-1.008 c -0.003,-0.793 -0.003,-1.585 -0.027,-2.378 l 1.34,-0.682 z m 2.253,-1.229 c 0.1,0.807 0.119,1.678 0.147,2.508 0.008,0.244 0.014,0.488 0.02,0.733 l -1.274,0.655 C 18.846,30.619 18.84,30.375 18.83,30.132 18.793,29.305 18.787,28.461 18.622,27.649 l 1.34,-0.682 z m 2.459,-0.615 c -0.2,0.692 -0.273,1.416 -0.343,2.134 a 49.16,49.16 0 0 0 -0.13,2.32 l -1.275,0.643 c 0.03,-0.774 0.06,-1.548 0.118,-2.321 0.055,-0.698 0.084,-1.425 0.29,-2.093 z"
         inkscape:connector-curvature="0" />
      <path
         id="path4548"
         d="m 11.914,28.091 c 0.92,0.194 1.853,0.354 2.78,0.511 2.18,0.337 4.368,0.636 6.56,0.887 a 170.7,170.7 0 0 1 2.747,0.3 l -1.184,0.838 C 21.91,30.515 21.003,30.41 20.094,30.311 a 230.868,230.868 0 0 1 -6.566,-0.89 c -0.94,-0.151 -1.888,-0.336 -2.83,-0.445 z"
         inkscape:connector-curvature="0" />
    </g>
  </g>
</svg>
